<svg xmlns="http://www.w3.org/2000/svg"
 xmlns:xlink="http://www.w3.org/1999/xlink"
 width="21px" height="7px"  viewBox="0 0 21 7">
<path fill-rule="evenodd"  fill="#2d2f33"
 d="M3.0,1.6249084 C4.0354004,1.6249084 4.875,2.464386 4.875,3.4996338 C4.875,4.5353394 4.0354004,5.374817 3.0,5.374817 C1.9643555,5.374817 1.125,4.5353394 1.125,3.4996338 C1.125,2.464386 1.9643555,1.6249084 3.0,1.6249084 ZM10.5,1.6249084 C11.5354,1.6249084 12.375,2.464386 12.375,3.4996338 C12.375,4.5353394 11.5354,5.374817 10.5,5.374817 C9.464355,5.374817 8.625,4.5353394 8.625,3.4996338 C8.625,2.464386 9.464355,1.6249084 10.5,1.6249084 ZM18.0,1.6249084 C19.0354,1.6249084 19.875,2.464386 19.875,3.4996338 C19.875,4.5353394 19.0354,5.374817 18.0,5.374817 C16.964355,5.374817 16.125,4.5353394 16.125,3.4996338 C16.125,2.464386 16.964355,1.6249084 18.0,1.6249084 Z"/>
</svg>